<?xml version="1.0" encoding="iso-8859-1"?>
<!-- Generator: Adobe Illustrator 19.0.0, SVG Export Plug-In . SVG Version: 6.00 Build 0)  -->
<svg version="1.1" id="Layer_1" xmlns="http://www.w3.org/2000/svg" xmlns:xlink="http://www.w3.org/1999/xlink" x="0px" y="0px"
	 viewBox="0 0 290.625 290.625" style="enable-background:new 0 0 290.625 290.625;" xml:space="preserve">
<g>
	<g>
		<g>
			<path d="M290.625,171.093h-11.339l-1.209-37.5h7.861v-9.375h-8.166l-1.059-32.813h4.538v-9.375h-4.688V53.905
				c0-6.103-3.933-11.259-9.375-13.2V30.468h-9.375v10.237c-5.442,1.941-9.375,7.097-9.375,13.2v28.125h-4.688v9.375h4.537
				l-1.059,32.813h-8.166v9.375h7.861l-1.209,37.5h-11.339v9.375h11.039l-0.15,4.688h-11.78c0.534-1.462,0.891-3.047,0.891-4.688
				c0-13.402-13.055-22.734-18.75-26.17v-11.33h-9.375v11.33c-5.695,3.436-18.75,12.769-18.75,26.17
				c0,1.641,0.356,3.225,0.891,4.688H187.5v-4.688v-65.625h4.688v-9.375H187.5v-9.375h-9.375v9.375h-4.688v9.375h4.688v14.063
				h-10.266c0.534-1.463,0.891-3.047,0.891-4.688c0-13.402-13.055-22.734-18.75-26.17V82.031h-9.375v16.017
				c-5.695,3.436-18.75,12.769-18.75,26.17c0,1.641,0.356,3.225,0.891,4.688H112.5v-14.063h4.688v-9.375H112.5v-9.375h-9.375v9.375
				h-4.688v9.375h4.688v65.625v4.688h-0.891c0.534-1.462,0.891-3.047,0.891-4.688c0-13.402-13.055-22.734-18.75-26.17v-11.33H75
				v11.33c-5.695,3.436-18.75,12.769-18.75,26.17c0,1.641,0.356,3.225,0.891,4.688h-11.78l-0.15-4.688H56.25v-9.375H44.911
				l-1.209-37.5h7.861v-9.375h-8.166l-1.059-32.813h4.537v-9.375h-4.688V53.905c0-6.103-3.933-11.259-9.375-13.2V30.468h-9.375
				v10.237c-5.442,1.941-9.375,7.097-9.375,13.2v28.125H9.375v9.375h4.537l-1.059,32.813H4.688v9.375h7.861l-1.209,37.5H0v9.375
				h11.039l-1.514,46.875H0v9.375h9.375v14.063H0v9.375h290.625v-9.375h-9.375v-14.063h9.375v-9.375H281.1l-1.514-46.875h11.039
				V171.093z M79.659,162.412c4.364,2.672,14.091,9.586,14.091,18.056c0,1.341-1.064,3.23-2.161,4.688H67.786
				c-1.097-1.459-2.161-3.348-2.161-4.688C65.625,172.575,74.395,165.604,79.659,162.412z M23.438,53.906
				c0-2.584,2.1-4.688,4.687-4.688s4.688,2.105,4.688,4.688v4.688h-9.375V53.906z M23.438,67.968h9.375v14.063h-9.375V67.968z
				 M23.288,91.406h9.675l1.059,32.813H22.228L23.288,91.406z M21.923,133.593h12.398l1.209,37.5H20.714L21.923,133.593z
				 M20.414,180.468h15.422l1.514,46.875H18.9L20.414,180.468z M103.125,250.781H18.75v-14.063h84.375V250.781z M103.125,227.343
				H93.75v-18.75h-9.375v18.75h-4.688v-18.75h-9.375v18.75h-4.688v-18.75H56.25v18.75h-9.525l-1.059-32.813h57.459V227.343z
				 M145.284,106.163c4.364,2.672,14.091,9.586,14.091,18.056c0,1.341-1.064,3.23-2.161,4.688h-23.803
				c-1.097-1.459-2.161-3.348-2.161-4.688C131.25,116.325,140.02,109.354,145.284,106.163z M178.125,250.781H112.5v-14.063h65.625
				V250.781z M131.25,227.343v-37.5c0-7.894,8.77-14.864,14.034-18.056c4.364,2.672,14.091,9.586,14.091,18.056v37.5H131.25z
				 M178.125,227.343h-9.375v-37.5c0-16.767-20.47-27.192-21.342-27.633l-2.095-1.045l-2.095,1.05
				c-0.872,0.436-21.342,10.861-21.342,27.628v37.5H112.5v-89.063h65.625V227.343z M257.813,53.906c0-2.584,2.1-4.688,4.687-4.688
				c2.587,0,4.688,2.105,4.688,4.688v4.688h-9.375V53.906z M257.813,67.968h9.375v14.063h-9.375V67.968z M257.663,91.406h9.675
				l1.059,32.813h-11.794L257.663,91.406z M256.298,133.593h12.398l1.209,37.5h-14.817L256.298,133.593z M254.794,180.468h15.422
				l1.509,46.875H253.28L254.794,180.468z M210.909,162.412c4.364,2.672,14.091,9.586,14.091,18.056
				c0,1.345-1.069,3.234-2.156,4.688h-23.808c-1.097-1.459-2.161-3.348-2.161-4.688
				C196.875,172.575,205.645,165.604,210.909,162.412z M187.5,194.531h57.459l-1.059,32.813h-9.525v-18.75H225v18.75h-4.688v-18.75
				h-9.375v18.75h-4.688v-18.75h-9.375v18.75H187.5V194.531z M271.875,250.781H187.5v-14.063h84.375V250.781z"/>
			<rect x="135.938" y="208.593" width="9.375" height="9.375"/>
			<rect x="135.938" y="189.843" width="9.375" height="9.375"/>
		</g>
	</g>
</g>
<g>
</g>
<g>
</g>
<g>
</g>
<g>
</g>
<g>
</g>
<g>
</g>
<g>
</g>
<g>
</g>
<g>
</g>
<g>
</g>
<g>
</g>
<g>
</g>
<g>
</g>
<g>
</g>
<g>
</g>
</svg>
